<?xml version="1.0" encoding="UTF-8"?>
<svg width="11px" height="7px" viewBox="0 0 11 7" version="1.1" xmlns="http://www.w3.org/2000/svg" xmlns:xlink="http://www.w3.org/1999/xlink">
    <!-- Generator: Sketch 45 (43475) - http://www.bohemiancoding.com/sketch -->
    <title>Combined Shape Copy</title>
    <desc>Created with Sketch.</desc>
    <defs></defs>
    <g id="购买、兑换" stroke="none" stroke-width="1" fill="none" fill-rule="evenodd">
        <g id="4-4-我的明细" transform="translate(-1500.000000, -247.000000)" fill="#A5A8B2">
            <g id="Group-4" transform="translate(360.000000, 121.000000)">
                <g id="Group-9" transform="translate(155.000000, 55.000000)">
                    <g id="Group-7" transform="translate(830.000000, 55.000000)">
                        <path d="M160.779211,19.9546057 L164.099211,16.634605 C164.449694,16.2841223 165.020725,16.2869084 165.366908,16.6330918 L164.733816,16 C165.083463,16.3496469 165.653817,16.9200001 166,17.2661836 L165.366908,16.6330918 C165.716555,16.9827387 165.721748,17.5444353 165.365395,17.9007886 L161.45921,21.8069735 C161.272045,21.9941385 161.023667,22.0822419 160.779211,22.0700909 C160.534754,22.0822419 160.286376,21.9941385 160.099211,21.8069735 L156.193027,17.9007886 C155.836673,17.5444353 155.841866,16.9827387 156.191513,16.6330918 C156.543598,16.2810072 157.108727,16.2841223 157.45921,16.634605 L160.779211,19.9546057 Z" id="Combined-Shape-Copy"></path>
                    </g>
                </g>
            </g>
        </g>
    </g>
</svg>