<?xml version="1.0" encoding="UTF-8"?>
<svg width="169px" height="16px" viewBox="0 0 169 16" version="1.1" xmlns="http://www.w3.org/2000/svg" xmlns:xlink="http://www.w3.org/1999/xlink">
    <!-- Generator: Sketch 44.1 (41455) - http://www.bohemiancoding.com/sketch -->
    <title>FANTASY LEAGUE</title>
    <desc>Created with Sketch.</desc>
    <defs></defs>
    <g id="Page-1" stroke="none" stroke-width="1" fill="none" fill-rule="evenodd">
        <g id="1.幻联赛大厅" transform="translate(-442.000000, -32.000000)" fill="#373A41">
            <g id="MENU" transform="translate(0.000000, -1.000000)">
                <path d="M451.214844,33.9960938 L451.214844,36.8867188 L445.541016,36.8867188 L445.541016,39.7871094 L449.4375,39.7871094 L449.4375,42.3945312 L445.541016,42.3945312 L445.541016,48 L442.171875,48 L442.171875,33.9960938 L451.214844,33.9960938 Z M464.232422,48 L460.785156,48 L459.740234,45.3730469 L454.408203,45.3730469 L453.363281,48 L449.916016,48 L455.501953,33.9863281 L458.646484,33.9863281 L464.232422,48 Z M455.414062,42.7949219 L458.744141,42.7949219 L457.074219,38.1953125 L455.414062,42.7949219 Z M468.353516,33.9570312 L474.90625,42.1894531 L474.90625,33.9960938 L478.255859,33.9960938 L478.255859,48 L475.619141,48 L469.037109,39.7480469 L469.037109,48 L465.697266,48 L465.697266,33.9570312 L468.353516,33.9570312 Z M491.439453,33.9765625 L491.439453,36.9648438 L487.425781,36.9648438 L487.425781,48 L484.046875,48 L484.046875,36.9648438 L480.033203,36.9648438 L480.033203,33.9765625 L491.439453,33.9765625 Z M504.242188,48 L500.794922,48 L499.75,45.3730469 L494.417969,45.3730469 L493.373047,48 L489.925781,48 L495.511719,33.9863281 L498.65625,33.9863281 L504.242188,48 Z M495.423828,42.7949219 L498.753906,42.7949219 L497.083984,38.1953125 L495.423828,42.7949219 Z M504.994141,46.828125 L506.712891,44.1914062 C507.741542,44.8164094 508.63997,45.1289062 509.408203,45.1289062 C509.883466,45.1289062 510.309894,45.0084647 510.6875,44.7675781 C511.039064,44.5462229 511.214844,44.2923191 511.214844,44.0058594 C511.214844,43.9667967 511.211589,43.9244794 511.205078,43.8789062 C511.113932,43.3190076 510.495448,42.8860692 509.349609,42.5800781 C506.882149,41.9290332 505.485679,40.6692802 505.160156,38.8007812 C505.114583,38.5403633 505.091797,38.2864596 505.091797,38.0390625 C505.091797,36.7434831 505.729811,35.6725303 507.005859,34.8261719 C507.962895,34.1881479 508.994786,33.8691406 510.101562,33.8691406 C511.384121,33.8691406 512.770826,34.2955687 514.261719,35.1484375 L512.621094,37.84375 C511.670568,37.3033827 510.837243,37.0332031 510.121094,37.0332031 C509.639321,37.0332031 509.209637,37.1568998 508.832031,37.4042969 C508.499998,37.6256521 508.333984,37.8763007 508.333984,38.15625 C508.333984,38.1953127 508.33724,38.23763 508.34375,38.2832031 C508.441407,38.8365913 509.063145,39.2662745 510.208984,39.5722656 C512.689466,40.229821 514.085936,41.4993396 514.398438,43.3808594 C514.4375,43.6282564 514.457031,43.8691395 514.457031,44.1035156 C514.457031,45.4381577 513.792975,46.5286416 512.464844,47.375 C511.592444,47.9348986 510.593105,48.2148438 509.466797,48.2148438 C507.995435,48.2148438 506.504565,47.7526088 504.994141,46.828125 Z M529.164062,33.9960938 L523.822266,42.5800781 L523.822266,48 L520.472656,48 L520.472656,42.5800781 L515.140625,33.9960938 L518.783203,33.9960938 L522.152344,39.6894531 L525.521484,33.9960938 L529.164062,33.9960938 Z M538.490234,33.9960938 L538.490234,45.0410156 L543.851562,45.0410156 L543.851562,48 L535.150391,48 L535.150391,33.9960938 L538.490234,33.9960938 Z M555.140625,33.9765625 L555.140625,36.8769531 L548.978516,36.8769531 L548.978516,39.4257812 L553.412109,39.4257812 L553.412109,42.2382812 L548.978516,42.2382812 L548.978516,45.0019531 L555.140625,45.0019531 L555.140625,48 L545.697266,48 L545.697266,33.9765625 L555.140625,33.9765625 Z M569.828125,48 L566.380859,48 L565.335938,45.3730469 L560.003906,45.3730469 L558.958984,48 L555.511719,48 L561.097656,33.9863281 L564.242188,33.9863281 L569.828125,48 Z M561.009766,42.7949219 L564.339844,42.7949219 L562.669922,38.1953125 L561.009766,42.7949219 Z M583.080078,46.203125 C581.647779,47.6354238 579.916026,48.3515625 577.884766,48.3515625 C575.866526,48.3515625 574.141283,47.6354238 572.708984,46.203125 C571.276686,44.7708262 570.560547,43.045583 570.560547,41.0273438 C570.560547,38.9960836 571.276686,37.2643301 572.708984,35.8320312 C574.141283,34.3997324 575.866526,33.6835938 577.884766,33.6835938 C579.916026,33.6835938 581.647779,34.3997324 583.080078,35.8320312 L583.128906,35.8808594 L580.775391,38.1855469 C580.736328,38.1334633 580.694011,38.0846356 580.648438,38.0390625 C579.886715,37.2122354 578.9655,36.7988281 577.884766,36.7988281 C576.817052,36.7988281 575.899092,37.2122354 575.130859,38.0390625 C574.375647,38.8593791 573.998047,39.8522077 573.998047,41.0175781 C573.998047,42.1829485 574.375647,43.1757771 575.130859,43.9960938 C575.899092,44.8229208 576.817052,45.2363281 577.884766,45.2363281 C578.854823,45.2363281 579.694658,44.9043002 580.404297,44.2402344 L580.404297,42.453125 L577.845703,42.453125 L577.845703,39.7480469 L583.597656,39.7480469 L583.597656,45.578125 L583.080078,46.203125 Z M594.613281,33.9765625 L598.03125,33.9765625 L598.03125,42.4140625 C598.03125,44.0416748 597.455084,45.4316349 596.302734,46.5839844 C595.150385,47.7363339 593.760425,48.3125 592.132812,48.3125 C590.511711,48.3125 589.125006,47.7363339 587.972656,46.5839844 C586.820307,45.4316349 586.244141,44.0416748 586.244141,42.4140625 L586.244141,33.9765625 L589.662109,33.9765625 L589.662109,42.21875 C589.662109,44.0677176 590.485669,45.0247393 592.132812,45.0898438 C593.786467,45.0247393 594.613281,44.0677176 594.613281,42.21875 L594.613281,33.9765625 Z M610.404297,33.9765625 L610.404297,36.8769531 L604.242188,36.8769531 L604.242188,39.4257812 L608.675781,39.4257812 L608.675781,42.2382812 L604.242188,42.2382812 L604.242188,45.0019531 L610.404297,45.0019531 L610.404297,48 L600.960938,48 L600.960938,33.9765625 L610.404297,33.9765625 Z" id="FANTASY-LEAGUE"></path>
            </g>
        </g>
    </g>
</svg>