<?xml version="1.0" standalone="no"?><!DOCTYPE svg PUBLIC "-//W3C//DTD SVG 1.1//EN" "http://www.w3.org/Graphics/SVG/1.1/DTD/svg11.dtd"><svg t="1505186903463" class="icon" style="" viewBox="0 0 1202 1024" version="1.1" xmlns="http://www.w3.org/2000/svg" p-id="3385" xmlns:xlink="http://www.w3.org/1999/xlink" width="234.765625" height="200"><defs><style type="text/css"></style></defs><path d="M1204.63388 695.606557c-21.391621-120.480874-46.630237-256.466302-66.040073-378.870674-31.067395-3.905282-52.459016-7.752277-83.526412-9.734062l-1.923497-153.471766-17.486339-3.905283c-1.923497 0-102.994536-19.409836-137.967213-97.165756l-3.905282-3.905282-7.810565-3.846994A935.344262 935.344262 0 0 0 602.287796 0C446.834244 0 324.429872 42.724954 320.582878 44.70674l-9.734062 3.905282-3.905282 7.752277C272.029144 134.061931 169.034608 153.530055 169.034608 153.530055l-15.562841 1.923497L149.624772 308.925319c-31.067395 3.905282-52.459016 5.82878-83.526411 9.734062C46.630237 439.140255 21.391621 575.125683 0 695.606557l130.156648 79.679417c44.70674-5.82878 73.850638-9.734062 118.49909-13.581056 34.972678 52.459016 71.868852 83.526412 126.309654 128.233151 106.84153 85.508197 211.759563 128.233151 223.417122 132.138434l5.828779 1.923497 5.82878-1.923497c11.657559-3.905282 116.575592-46.630237 223.417122-132.138434 54.382514-44.70674 91.336976-75.774135 126.309654-128.233151 44.70674 3.905282 73.850638 7.752277 118.499089 13.581056l126.309654-79.679417" fill="#FEFEFE" p-id="3386"></path><path d="M1043.351548 719.912568l83.526412-46.630236-44.70674-81.602915h-110.746812v-3.905282a423.693989 423.693989 0 0 0 17.486339-122.404372v-29.143898l15.562841-135.985428-3.905282-102.994535-50.477231-15.504554-64.116576-44.70674-36.896175-44.706739-244.808743-33.04918H600.364299l-244.808743 33.04918-36.896175 44.706739-64.116576 44.70674L204.007286 197.245902l-3.905282 102.994535L215.664845 438.20765v25.238616a407.431694 407.431694 0 0 0 13.581057 108.823315l-128.233152 7.752277-29.143898 93.260474 73.850638 46.630236 147.642987-7.752277 1.981785 1.923498 46.630237 79.679417 58.287796 54.382513c11.657559 7.752277 60.211293 42.724954 71.868853 48.553735l46.630236 33.04918 79.679417 31.067395 3.905283 1.923497 69.945355-34.972677 40.801457-17.486339c17.486339-11.657559 44.70674-19.409836 64.116576-33.04918L862.659381 791.781421l44.706739-75.774135a42.375228 42.375228 0 0 1 7.752277-9.734062l128.233151 13.639344z" fill="#00ABDC" p-id="3387"></path><path d="M1053.08561 700.502732a3897.64663 3897.64663 0 0 0-450.797814-27.2204A3487.533698 3487.533698 0 0 0 151.54827 700.502732l-44.70674-27.2204a4225.865209 4225.865209 0 0 1 990.892532 0z m-450.739526 244.808743C466.302368 885.041894 406.091075 813.173042 380.794171 762.637523a509.435337 509.435337 0 0 0 48.553734 42.724954 787.351548 787.351548 0 0 0 172.939891 104.918033 713.908925 713.908925 0 0 0 172.939891-104.918033c17.486339-13.581056 33.04918-29.143898 48.553734-42.724954-25.238616 50.535519-85.449909 122.404372-221.493625 182.673952z m-343.897997-716.93989c52.400729-25.296903 135.985428-62.193078 200.102004-68.021858a733.027322 733.027322 0 0 0-157.377049 17.486339A211.118397 211.118397 0 0 0 349.726776 133.129326c56.364299-17.486339 151.54827-40.801457 250.637523-40.801457h3.905282c99.089253 0 194.273224 23.315118 250.637523 40.801457a169.034608 169.034608 0 0 0 46.630237 44.70674 733.027322 733.027322 0 0 0-157.37705-17.486339c64.116576 7.752277 147.642987 42.724954 200.102004 68.021858 0 5.82878 1.923497 19.409836 1.923497 34.972677a1708.298725 1708.298725 0 0 0-687.795992 0v-34.972677z m847.09654 118.499089c-27.220401-3.905282-56.364299-5.82878-83.526412-9.734062L1020.03643 181.741348l-15.562842-1.923497s-97.165756-17.486339-128.233151-89.355192l-3.905282-7.752276-7.752277-1.923498c-5.82878-3.905282-118.499089-42.724954-262.295082-42.724954s-256.466302 40.801457-262.295082 40.801457l-7.752277 1.806922-1.923497 9.734062c-31.125683 71.868852-126.309654 89.355191-128.233151 89.355191l-15.562842 1.981785-1.923497 155.395264c-29.143898 1.923497-56.364299 5.82878-85.508197 9.734062-19.409836 112.67031-38.87796 223.417122-58.287796 336.145719l99.089253 58.287796c40.801457-5.82878 81.602914-9.734062 122.404372-13.581056a686.8051 686.8051 0 0 0 126.309654 135.985428 858.637523 858.637523 0 0 0 205.930783 122.404372l3.905282 1.923497 3.905283-1.923497c11.657559-3.905282 108.823315-42.724954 205.930783-122.404372a637.318761 637.318761 0 0 0 126.309654-135.985428c40.801457 3.905282 81.602914 7.752277 122.404372 13.581056l99.089253-58.287796C1142.440801 570.287796 1124.954463 457.617486 1105.544627 346.870674z" fill="#191A1D" p-id="3388"></path><path d="M511.009107 142.863388l-7.752276-17.486339-9.734062 17.486339-19.409836 3.905282 13.581056 13.581057-1.923497 19.409836 17.486339-9.734062 17.486338 9.734062-3.905282-19.409836 15.562842-13.581057z m219.570128 3.905282l-19.468124-3.905282-9.734062-17.486339-7.752277 17.486339-21.391621 3.905282 15.562842 13.581057-3.905283 19.409836 17.486339-9.734062 17.486339 9.734062-1.923497-19.409836z m-116.575592-13.581056l-11.657559-23.315119-11.657559 23.315119-23.315119 3.905282 17.486339 17.486339-3.905282 25.238616 21.391621-11.65756 21.391621 11.65756-3.96357-25.296904 17.486339-17.486339z" fill="#231916" p-id="3389"></path><path d="M305.020036 319.650273a42.783242 42.783242 0 0 0 15.562842-1.923497v5.82878c-7.752277 0-13.581056 1.923497-21.391621 1.923497 1.923497-13.581056 5.82878-27.220401 7.752277-40.801457h5.828779zM361.384335 300.240437v-7.752277a16.495446 16.495446 0 0 0-5.828779-5.828779 9.384335 9.384335 0 0 0-7.752277-1.923498c-1.923497 0-5.82878 1.923497-7.752277 1.923498l-5.82878 5.828779c-1.981785 1.923497-1.981785 5.82878-3.905282 7.752277v5.82878a6.761384 6.761384 0 0 0 1.923497 3.905282l3.905282 3.905282h5.82878c1.923497 0 5.82878-1.923497 7.752277-1.923497a16.495446 16.495446 0 0 0 5.82878-5.828779 5.01275 5.01275 0 0 0 5.828779-5.82878m1.923497-15.562842c3.905282 3.846995 3.905282 7.752277 3.905283 15.504554a27.453552 27.453552 0 0 1-23.315119 23.315119 15.154827 15.154827 0 0 1-13.581056-5.82878 16.378871 16.378871 0 0 1-3.905282-13.581057 27.628415 27.628415 0 0 1 3.905282-11.657559 19.409836 19.409836 0 0 1 9.734062-7.752277 27.628415 27.628415 0 0 1 11.657559-3.905282 9.326047 9.326047 0 0 1 11.657559 3.905282m13.581057 29.143898a42.783242 42.783242 0 0 0 15.504553-1.981785v5.82878a79.679417 79.679417 0 0 0-21.391621 1.923497l5.82878-40.801457h5.828779z m75.774134-34.972677H437.15847a14.571949 14.571949 0 0 1-1.923497 9.675774h15.562841v5.82878h-15.562841c0 5.82878-1.923497 13.581056-1.923498 19.409836h-5.828779c1.923497-13.581056 1.923497-27.220401 3.905282-40.801458a79.679417 79.679417 0 0 0 21.333333-1.923497v7.752277m27.162113 15.562842a27.628415 27.628415 0 0 1-3.905282-11.65756l-5.82878 11.65756h9.734062M477.959927 273.020036c5.82878 13.639344 9.734062 27.220401 15.562842 38.87796h-5.82878l-5.82878-11.657559H466.302368a111.446266 111.446266 0 0 1-7.752277 13.581057h-5.82878l23.315119-40.801458H477.959927m48.553734-1.923497h5.82878l-1.923497 40.801457h-1.923498c-7.752277-9.734062-15.562842-17.486339-23.315118-27.2204 0 9.734062-1.923497 19.409836-1.923497 27.2204h-5.82878l1.923497-40.801457H501.275046c7.752277 9.734062 15.562842 17.486339 23.315118 27.220401a119.489982 119.489982 0 0 0 1.923497-27.220401m11.657559 0h29.143898v5.82878h-11.657559a211.176685 211.176685 0 0 1-1.923497 34.972677h-5.82878a211.176685 211.176685 0 0 1 1.923498-34.972677h-11.65756v-5.82878m54.382514 21.391621l-5.82878-11.657559-5.828779 11.657559h11.657559m-3.846994-21.391621a388.313297 388.313297 0 0 0 19.409836 40.801457h-5.82878a94.717668 94.717668 0 0 1-5.82878-13.581056h-15.504553a94.717668 94.717668 0 0 0-5.82878 13.581056h-5.82878c5.82878-13.581056 13.581056-27.220401 19.409837-40.801457m46.630236 29.143898a10.083789 10.083789 0 0 1-3.905282 7.752277 14.746812 14.746812 0 0 1-7.752277 3.905282 11.657559 11.657559 0 0 1-7.752277-1.923497l-5.828779-5.82878a6.761384 6.761384 0 0 0 3.905282-1.923497 7.344262 7.344262 0 0 0 3.846995 3.846995c1.923497 0 1.923497 1.923497 3.905282 1.923497h3.905282l1.923497-1.923497v-1.923498a3.905282 3.905282 0 0 0-1.923497-3.905282l-5.828779-5.828779a8.335155 8.335155 0 0 1-5.82878-5.82878 9.734062 9.734062 0 0 1 0-11.657559 1.923497 1.923497 0 0 1 1.923497-1.923498l1.923498-1.923497c1.923497 0 3.905282-1.923497 5.828779-1.923497a7.111111 7.111111 0 0 1 5.82878 1.923497 8.335155 8.335155 0 0 1 5.828779 5.82878 7.344262 7.344262 0 0 0-3.905282 3.905282 7.344262 7.344262 0 0 0-3.905282-3.905282H623.679417a3.905282 3.905282 0 0 0-3.905282 1.923497l-1.923497 1.923497v1.923498a1.923497 1.923497 0 0 0 1.923497 1.923497l1.981785 1.981785a6.761384 6.761384 0 0 0 3.905282 1.923497 29.143898 29.143898 0 0 1 7.752277 7.752277c1.923497-1.923497 1.923497 0.058288 1.923497 1.981785z m27.220401-29.143898h5.82878c-3.905282 7.752277-7.752277 13.581056-11.65756 21.391621v19.409836h-5.828779v-19.409836c-3.905282-7.810565-9.734062-13.639344-13.639344-21.391621h5.828779c3.905282 5.82878 5.82878 9.734062 9.734062 15.562842a68.138434 68.138434 0 0 0 9.734062-15.562842m50.535519 36.896175H728.59745v5.82878h-21.391621c0-13.581056-1.923497-27.220401-1.923497-40.801458h5.828779a211.176685 211.176685 0 0 0 1.923497 34.972678m40.801458-29.143898h-17.486339v9.734062h17.486339v5.82878h-17.486339a33.04918 33.04918 0 0 0 1.923497 13.581056h17.486339v5.82878a94.601093 94.601093 0 0 1-23.315119-1.923498c-1.923497-13.581056-1.923497-27.220401-3.905282-40.801457a94.601093 94.601093 0 0 1 23.315119 1.923497c0 3.905282 0 5.82878 1.923497 5.82878m29.143898 19.409836l-5.82878-11.657559c-1.923497 3.905282-1.923497 7.752277-3.905282 11.657559h9.734062m-5.82878-23.315118l23.315119 40.801457h-5.82878c-1.865209-3.846995-5.770492-9.675774-7.693989-13.581057h-15.562842a27.628415 27.628415 0 0 0-3.905282 11.65756h-5.82878c5.82878-13.581056 9.734062-27.220401 15.562842-38.87796m66.098361 25.296903a14.105647 14.105647 0 0 1-3.905283 15.562842 12.007286 12.007286 0 0 1-13.581056 3.905282 84.167577 84.167577 0 0 1-9.734062-1.981785 26.812386 26.812386 0 0 1-7.752277-5.82878 20.983607 20.983607 0 0 1-5.82878-13.581056 14.571949 14.571949 0 0 1 1.923498-9.734062 15.154827 15.154827 0 0 1 7.752277-7.752277 21.041894 21.041894 0 0 1 11.657559-1.923497h5.828779a6.761384 6.761384 0 0 1 3.905283 1.923497c3.905282 1.923497 5.82878 3.905282 9.734062 5.82878a13.581056 13.581056 0 0 0-7.752277 3.905282c-1.923497-1.923497-5.82878-3.905282-7.752277-5.82878a16.495446 16.495446 0 0 0-15.562842 0l-5.828779 5.82878a9.384335 9.384335 0 0 0-1.923498 7.752277 14.746812 14.746812 0 0 0 3.905283 7.752277 26.812386 26.812386 0 0 0 7.693989 5.828779 25.238616 25.238616 0 0 0 19.409836 0l1.923497-1.923497a1.923497 1.923497 0 0 1 1.923497-1.923497v-3.905283h-11.657559v-5.828779a54.673953 54.673953 0 0 1 15.562842 1.923497" fill="#FEFEFE" p-id="3390"></path><path d="M870.411658 282.754098c1.923497 7.752277 1.923497 15.562842 3.905282 25.238616v7.752277a10.31694 10.31694 0 0 1-3.905282 5.828779 9.384335 9.384335 0 0 1-7.752277 1.981786 20.517304 20.517304 0 0 1-9.734062-3.905283 26.812386 26.812386 0 0 1-5.82878-7.752277 5.82878 5.82878 0 0 0-1.923497-3.905282 7.111111 7.111111 0 0 0-1.923497-5.82878c-1.981785-7.752277-1.981785-15.504554-3.905283-25.238615h5.82878c1.923497 7.752277 1.923497 15.562842 3.905282 25.238615v5.82878a3.905282 3.905282 0 0 0 1.923497 3.905282c0 1.923497 1.923497 1.923497 3.905283 1.923498s1.923497 1.923497 3.905282 1.923497h3.846995l1.923497-1.923497a5.82878 5.82878 0 0 1 1.923497-3.905283v-5.828779l-3.846994-25.238616a28.502732 28.502732 0 0 1 7.752277 3.905282m29.143898 7.752277c-5.82878 0-11.657559-1.923497-17.486339-1.923497a84.167577 84.167577 0 0 0 1.923497 9.734062c5.82878 0 11.657559 1.923497 17.486339 1.923497a7.111111 7.111111 0 0 0 1.923497 5.82878c-5.82878 0-11.657559-1.923497-17.486339-1.923498 0 3.905282 1.923497 9.734062 1.923498 13.581057 5.82878 0 11.657559 1.923497 17.486338 1.923497a7.111111 7.111111 0 0 0 1.923498 5.82878c-7.752277 0-15.562842-1.923497-23.315119-1.923497l-9.617486-40.801458c7.752277 0 15.562842 1.923497 23.315118 1.923498a7.111111 7.111111 0 0 1 1.923498 5.828779M233.151184 550.87796c60.211293-5.82878 122.404372-7.752277 182.615665-11.657559-1.923497 17.486339-1.923497 36.896175-3.905283 54.382513-95.183971 3.905282-190.367942 9.734062-283.628415 19.468124 9.734062-62.193078 17.486339-124.327869 27.220401-188.444444-11.657559-9.734062-23.315118-19.409836-33.04918-29.143898 42.724954-3.905282 85.508197-9.734062 128.233151-11.657559-3.905282 58.287796-9.734062 112.67031-17.486339 167.111111m324.48816-95.242259c64.116576 0 128.233151 0 194.273224 1.923497 1.923497 17.486339 1.923497 36.896175 3.905283 54.382514-66.098361-1.923497-132.138434-3.846995-196.255009-1.923497v81.602914c-33.04918 0-66.040073 0-97.165756 1.923497 1.923497-62.193078 5.82878-124.327869 7.752276-186.520947-11.657559-9.734062-25.238616-21.391621-36.896174-31.067395 104.918033-3.905282 211.759563-3.905282 316.677595 0 1.923497 17.486339 1.923497 36.896175 3.905283 54.382514-64.116576-1.923497-128.233151-3.905282-192.349727-1.923498a61.726776 61.726776 0 0 0-3.905283 27.220401m351.650274 93.260474c60.211293 3.905282 122.404372 9.734062 182.615665 17.486338 3.905282 17.486339 5.82878 36.896175 9.734061 54.382514-93.260474-9.734062-188.444444-17.486339-283.686703-23.315118-3.905282-62.193078-9.734062-124.327869-13.581056-186.520947l-40.801457-34.972678c42.724954 1.923497 85.508197 3.905282 130.156648 7.752277 3.96357 54.440801 9.79235 108.823315 15.621129 165.187614m-285.6102 273.952641l15.562842-29.143898-15.562842-7.810565-13.581056 5.82878-7.752277 3.905282v33.04918l-21.391621-15.562841 15.562841 25.238616-38.87796-40.801458 7.752277-42.724954h1.923497l5.82878-3.905282 27.220401-19.409836 3.905282-1.923498 7.752277 29.143898h1.923497l25.238616-3.905282 7.752277 42.724954-23.315119 25.238616z m38.87796-19.409836l-9.734062-54.440802-38.87796-27.2204-3.905282-1.923498-7.752277-7.752277-50.477231 36.896175-9.734062 54.382514 1.923497 15.562841 60.211293 60.211294 3.905283-3.905283 56.364298-56.306011-1.923497-15.562841z" fill="#FEFEFE" p-id="3391"></path></svg>