<?xml version="1.0" encoding="utf-8"?>
<!-- Generator: Adobe Illustrator 21.0.0, SVG Export Plug-In . SVG Version: 6.00 Build 0)  -->
<svg version="1.1" id="图层_1" xmlns="http://www.w3.org/2000/svg" xmlns:xlink="http://www.w3.org/1999/xlink" x="0px" y="0px"
	 viewBox="0 0 352 142" style="enable-background:new 0 0 352 142;" xml:space="preserve">
<style type="text/css">
	.st0{fill:#FFFFFF;}
	.st1{fill:#E7EDF1;}
</style>
<title>入场费背景</title>
<desc>Created with Sketch.</desc>
<g>
	<g>
		<path id="path-1_1_" class="st0" d="M1,119.1v-9.5c3.1-0.4,5.5-3,5.5-6.2c0-3.2-2.4-5.9-5.5-6.2v-9.5c3.1-0.4,5.5-3,5.5-6.2
			S4.1,75.6,1,75.2v-8.4c3.1-0.4,5.5-3,5.5-6.2S4.1,54.7,1,54.3v-9.5c3.1-0.4,5.5-3,5.5-6.2c0-3.2-2.4-5.9-5.5-6.2v-9.5
			c3.1-0.4,5.5-3,5.5-6.2S4.1,10.8,1,10.4V1h350v9.4c-3.3,0.1-6,2.9-6,6.3s2.7,6.1,6,6.3v9.4c-3.3,0.1-6,2.9-6,6.3
			c0,3.4,2.7,6.1,6,6.3v9.4c-3.3,0.1-6,2.9-6,6.3s2.7,6.1,6,6.3v8.4c-3.3,0.1-6,2.9-6,6.3s2.7,6.1,6,6.3v9.4c-3.3,0.1-6,2.9-6,6.3
			c0,3.4,2.7,6.1,6,6.3v9.4c-3.3,0.1-6,2.9-6,6.3s2.7,6.1,6,6.3v9.4H1v-9.4c3.1-0.4,5.5-3,5.5-6.2S4.1,119.5,1,119.1z"/>
	</g>
	<g>
		<path class="st1" d="M352,142H0v-11.3l0.9-0.1c2.7-0.3,4.7-2.6,4.7-5.2c0-2.7-2-4.9-4.7-5.2L0,120v-11.3l0.9-0.1
			c2.7-0.3,4.7-2.6,4.7-5.2c0-2.7-2-4.9-4.7-5.2L0,98.1V86.8l0.9-0.1c2.7-0.3,4.7-2.6,4.7-5.2c0-2.7-2-4.9-4.7-5.2L0,76.1V65.9
			l0.9-0.1c2.7-0.3,4.7-2.6,4.7-5.2c0-2.7-2-4.9-4.7-5.2L0,55.2V43.9l0.9-0.1c2.7-0.3,4.7-2.6,4.7-5.2c0-2.7-2-4.9-4.7-5.2L0,33.3
			V22l0.9-0.1c2.7-0.3,4.7-2.6,4.7-5.2s-2-4.9-4.7-5.2L0,11.3V0h352v11.4l-1,0c-2.8,0.1-5,2.4-5,5.3s2.2,5.1,5,5.3l1,0v11.3l-1,0
			c-2.8,0.1-5,2.4-5,5.3s2.2,5.1,5,5.3l1,0v11.3l-1,0c-2.8,0.1-5,2.4-5,5.3s2.2,5.1,5,5.3l1,0v10.3l-1,0c-2.8,0.1-5,2.4-5,5.3
			s2.2,5.1,5,5.3l1,0v11.3l-1,0c-2.8,0.1-5,2.4-5,5.3c0,2.8,2.2,5.1,5,5.3l1,0V120l-1,0c-2.8,0.1-5,2.4-5,5.3c0,2.8,2.2,5.1,5,5.3
			l1,0V142z M1,141h350v-9.4c-3.4-0.1-6-2.9-6-6.3c0-3.4,2.6-6.1,6-6.3v-9.4c-3.4-0.1-6-2.9-6-6.3s2.6-6.1,6-6.3v-9.4
			c-3.4-0.1-6-2.9-6-6.3s2.6-6.1,6-6.3v-8.4c-3.4-0.1-6-2.9-6-6.3c0-3.4,2.6-6.1,6-6.3v-9.4c-3.4-0.1-6-2.9-6-6.3s2.6-6.1,6-6.3
			v-9.4c-3.4-0.1-6-2.9-6-6.3s2.6-6.1,6-6.3V1H1v9.4c3.2,0.4,5.5,3,5.5,6.2S4.2,22.5,1,22.9v9.5c3.2,0.4,5.5,3,5.5,6.2
			S4.2,44.5,1,44.8v9.5c3.2,0.4,5.5,3,5.5,6.2S4.2,66.4,1,66.8v8.4c3.2,0.4,5.5,3,5.5,6.2S4.2,87.3,1,87.7v9.5
			c3.2,0.4,5.5,3,5.5,6.2s-2.4,5.9-5.5,6.2v9.5c3.2,0.4,5.5,3,5.5,6.2s-2.4,5.9-5.5,6.2V141z"/>
	</g>
</g>
</svg>
