<?xml version="1.0" encoding="UTF-8"?>
<svg width="16px" height="16px" viewBox="0 0 16 16" version="1.1" xmlns="http://www.w3.org/2000/svg" xmlns:xlink="http://www.w3.org/1999/xlink">
    <!-- Generator: Sketch 45 (43475) - http://www.bohemiancoding.com/sketch -->
    <title>门票_白</title>
    <desc>Created with Sketch.</desc>
    <defs></defs>
    <g id="大厅、阵容选择" stroke="none" stroke-width="1" fill="none" fill-rule="evenodd">
        <g id="1-1-幻联赛大厅" transform="translate(-1459.000000, -687.000000)" fill="#FFFFFF">
            <g id="Group-4" transform="translate(360.000000, 580.000000)">
                <g id="Group-7" transform="translate(0.000000, 65.000000)">
                    <g id="Group-9" transform="translate(1086.000000, 32.000000)">
                        <path d="M19.4260952,21.9346667 L19.1638095,21.672381 L23.0984762,17.7377143 L23.3607619,18 L19.4260952,21.9346667 Z M17.7209524,20.2295238 L16.2782857,18.7868571 L19.0325714,16.0325714 L20.4752381,17.4752381 L17.7209524,20.2295238 Z M21.6558095,13.4095238 L22.7049524,14.4586667 L22.1801905,14.9834286 L21.1310476,13.9340952 L21.6558095,13.4095238 Z M22.9672381,14.7209524 L24.2788571,16.0325714 L23.7542857,16.5573333 L22.4426667,15.2457143 L22.9672381,14.7209524 Z M24.5411429,16.2950476 L25.5904762,17.3441905 L25.0657143,17.8687619 L24.0165714,16.819619 L24.5411429,16.2950476 Z M23.8853333,18.5245714 L24.147619,18.7868571 L20.2129524,22.7215238 L19.9506667,22.4592381 L23.8853333,18.5245714 Z M17.3937143,24.3607619 C18.127619,23.6266667 18.052,22.3965714 17.3274286,21.672381 C16.6032381,20.948 15.3072381,20.8072381 14.5731429,21.5411429 L13,19.9678095 L22.9666667,10 L24.5152381,11.5481905 C23.8194286,12.272381 23.9422857,13.5977143 24.6721905,14.327619 C25.4022857,15.0575238 26.724,15.1765714 27.4481905,14.4805714 L29,16.032 L19.0331429,26 L17.3937143,24.3607619 Z" id="门票_白"></path>
                    </g>
                </g>
            </g>
        </g>
    </g>
</svg>